<?xml version="1.0" encoding="UTF-8"?>
<!DOCTYPE svg PUBLIC "-//W3C//DTD SVG 1.1//EN" "http://www.w3.org/Graphics/SVG/1.1/DTD/svg11.dtd">
<svg xmlns="http://www.w3.org/2000/svg" version="1.1" width="500px" height="500px" style="shape-rendering:geometricPrecision; text-rendering:geometricPrecision; image-rendering:optimizeQuality; fill-rule:evenodd; clip-rule:evenodd" xmlns:xlink="http://www.w3.org/1999/xlink">
<g><path style="opacity:0.886" fill="#ebfaea" d="M 265.5,111.5 C 265.539,112.756 265.039,113.756 264,114.5C 262.2,112.855 260.2,111.522 258,110.5C 256.599,112.192 254.766,112.859 252.5,112.5C 253.986,108.188 255.486,103.855 257,99.5C 258.394,97.5981 260.227,97.2647 262.5,98.5C 263.561,103.176 264.561,107.51 265.5,111.5 Z M 258.5,105.5 C 260.337,105.639 260.67,106.306 259.5,107.5C 258.702,107.043 258.369,106.376 258.5,105.5 Z"/></g>
<g><path style="opacity:0.804" fill="#edfbee" d="M 239.5,101.5 C 241.17,101.751 242.67,102.418 244,103.5C 244.218,106.426 244.718,109.26 245.5,112C 244.584,112.374 243.75,112.874 243,113.5C 242.25,112.874 241.416,112.374 240.5,112C 241.476,109.853 241.309,107.686 240,105.5C 238.259,107.541 238.092,109.708 239.5,112C 238.965,114.109 237.965,114.609 236.5,113.5C 234.906,110.015 234.24,106.348 234.5,102.5C 236.415,102.784 238.081,102.451 239.5,101.5 Z"/></g>
<g><path style="opacity:0.706" fill="#e4f4e4" d="M 213.5,106.5 C 216.346,106.03 218.679,106.863 220.5,109C 219.833,109.333 219.167,109.667 218.5,110C 221.838,111.988 222.172,114.321 219.5,117C 216.901,117.769 214.401,117.602 212,116.5C 211.544,115.256 212.044,114.423 213.5,114C 208.719,111.829 208.719,109.329 213.5,106.5 Z"/></g>
<g><path style="opacity:0.008" fill="#fefffe" d="M 222.5,110.5 C 221.833,109.167 221.833,109.167 222.5,110.5 Z"/></g>
<g><path style="opacity:0.982" fill="#e5f7e5" d="M 222.5,110.5 C 223.692,109.434 223.359,108.601 221.5,108C 224.161,103.163 227.494,102.496 231.5,106C 232.044,108.4 232.711,110.733 233.5,113C 230.99,114.09 228.49,115.257 226,116.5C 223.545,115.257 222.378,113.257 222.5,110.5 Z M 226.5,110.5 C 229.001,110.511 229.168,111.178 227,112.5C 226.536,111.906 226.369,111.239 226.5,110.5 Z"/></g>
<g><path style="opacity:0.996" fill="#e6f6e5" d="M 267.5,118.5 C 267.018,117.584 266.685,116.584 266.5,115.5C 268.091,111.771 268.925,108.105 269,104.5C 269.561,103.978 270.228,103.645 271,103.5C 273.135,104.127 275.302,104.627 277.5,105C 281.137,112.222 278.804,115.722 270.5,115.5C 270.5,116.5 270.5,117.5 270.5,118.5C 269.5,118.5 268.5,118.5 267.5,118.5 Z M 273.5,107.5 C 274.782,108.708 274.782,110.042 273.5,111.5C 273.094,110.443 273.094,109.109 273.5,107.5 Z"/></g>
<g><path style="opacity:0.016" fill="#d5ffd4" d="M 265.5,111.5 C 265.369,110.761 265.536,110.094 266,109.5C 266.692,110.437 266.525,111.103 265.5,111.5 Z"/></g>
<g><path style="opacity:0.938" fill="#e5f5e5" d="M 282.5,105.5 C 291.676,107.322 293.676,111.822 288.5,119C 286.926,119.699 285.593,119.365 284.5,118C 285.308,115.912 286.308,113.912 287.5,112C 287,111.5 286.5,111 286,110.5C 284.667,113.167 283.333,115.833 282,118.5C 280.842,118.002 280.009,117.169 279.5,116C 280.43,112.443 281.43,108.943 282.5,105.5 Z"/></g>
<g><path style="opacity:0.965" fill="#e5f3e6" d="M 203.5,105.5 C 206.157,106.26 207.157,107.76 206.5,110C 209.277,112.933 210.61,116.433 210.5,120.5C 208.549,120.773 207.049,120.107 206,118.5C 204.686,115.376 203.52,112.209 202.5,109C 202.648,107.744 202.982,106.577 203.5,105.5 Z"/></g>
<g><path style="opacity:0.349" fill="#e6f6e7" d="M 197.5,108.5 C 198.766,110.694 198.766,113.028 197.5,115.5C 200.167,117.5 202.833,119.5 205.5,121.5C 202.437,124.107 199.604,123.774 197,120.5C 197.135,122.425 197.302,124.425 197.5,126.5C 196.167,126.5 194.833,126.5 193.5,126.5C 192.404,122.303 190.738,118.303 188.5,114.5C 190.649,110.711 192.482,111.045 194,115.5C 194.139,112.555 195.306,110.221 197.5,108.5 Z"/></g>
<g><path style="opacity:0.976" fill="#e2f4e0" d="M 295.5,111.5 C 300.863,111.688 303.03,114.355 302,119.5C 301.313,121.555 300.146,123.221 298.5,124.5C 295.654,123.292 292.987,121.792 290.5,120C 290.958,117.602 292.292,115.936 294.5,115C 293.692,114.692 293.025,114.192 292.5,113.5C 293.602,112.824 294.602,112.158 295.5,111.5 Z"/></g>
<g><path style="opacity:1" fill="#1c914c" d="M 267.5,118.5 C 290.981,124.155 310.148,136.489 325,155.5C 325.667,156.5 325.667,157.5 325,158.5C 296.899,131.083 263.399,121.083 224.5,128.5C 216.659,129.488 208.992,131.321 201.5,134C 194.5,139.167 187.5,144.333 180.5,149.5C 179.692,149.192 179.025,148.692 178.5,148C 180.141,146.871 181.141,145.371 181.5,143.5C 183.294,141.203 185.294,139.037 187.5,137C 199.31,128.729 212.143,122.562 226,118.5C 226.561,119.022 227.228,119.355 228,119.5C 230.983,118.473 233.983,117.473 237,116.5C 247.114,117.256 257.281,117.922 267.5,118.5 Z"/></g>
<g><path style="opacity:0.663" fill="#e5f5e4" d="M 314.5,115.5 C 317.733,117.561 320.066,120.228 321.5,123.5C 319.792,127.106 317.626,130.439 315,133.5C 311.557,132.533 308.724,130.7 306.5,128C 308.586,123.424 311.253,119.257 314.5,115.5 Z M 315.5,121.5 C 317.337,121.639 317.67,122.306 316.5,123.5C 315.702,123.043 315.369,122.376 315.5,121.5 Z M 312.5,125.5 C 314.332,126.14 314.665,127.14 313.5,128.5C 311.481,127.867 311.147,126.867 312.5,125.5 Z"/></g>
<g><path style="opacity:0.996" fill="#e6f7e6" d="M 177.5,135.5 C 176.899,132.451 176.399,129.451 176,126.5C 177.066,124.901 178.566,123.901 180.5,123.5C 183.926,125.181 186.593,127.681 188.5,131C 185.971,133.029 183.304,134.862 180.5,136.5C 179.583,135.873 178.583,135.539 177.5,135.5 Z"/></g>
<g><path style="opacity:0.961" fill="#93b65c" d="M 265.5,130.5 C 264.322,131.999 262.655,132.999 260.5,133.5C 261.602,134.176 262.602,134.842 263.5,135.5C 252.522,133.534 241.522,133.201 230.5,134.5C 229.692,134.192 229.025,133.692 228.5,133C 236.094,131.257 243.761,129.757 251.5,128.5C 256.046,129.985 260.713,130.652 265.5,130.5 Z"/></g>
<g><path style="opacity:0.984" fill="#e4f6e3" d="M 322.5,128.5 C 328.099,128.382 330.266,131.049 329,136.5C 327.54,138.466 325.873,140.132 324,141.5C 321.026,140.105 318.86,137.938 317.5,135C 319.182,132.831 320.849,130.664 322.5,128.5 Z"/></g>
<g><path style="opacity:0.973" fill="#e6f2e2" d="M 177.5,135.5 C 179.111,137.833 178.611,139.5 176,140.5C 174.055,139.059 172.221,137.393 170.5,135.5C 170.167,135.833 169.833,136.167 169.5,136.5C 171.167,138.5 172.833,140.5 174.5,142.5C 174.113,143.72 173.28,144.387 172,144.5C 168.833,142.667 166.333,140.167 164.5,137C 166.303,134.695 168.303,132.528 170.5,130.5C 173.172,131.861 175.505,133.528 177.5,135.5 Z"/></g>
<g><path style="opacity:0.987" fill="#e3f5e4" d="M 332.5,135.5 C 335.563,137.051 338.229,139.218 340.5,142C 337.833,143 335.167,144 332.5,145C 334.952,146.806 334.619,148.306 331.5,149.5C 329.167,147.833 327.167,145.833 325.5,143.5C 325.977,142.522 326.643,141.689 327.5,141C 329.256,140.798 330.922,140.298 332.5,139.5C 331.193,138.135 331.193,136.802 332.5,135.5 Z"/></g>
<g><path style="opacity:0.986" fill="#e4f4e0" d="M 168.5,155.5 C 167.577,156.303 166.577,156.47 165.5,156C 161.686,153.353 158.353,150.187 155.5,146.5C 160.006,138.936 164.673,138.936 169.5,146.5C 168.872,148.258 167.872,149.758 166.5,151C 168.037,152.11 168.703,153.61 168.5,155.5 Z M 161.5,144.5 C 163.728,145.322 164.395,146.655 163.5,148.5C 161.204,147.632 160.537,146.298 161.5,144.5 Z"/></g>
<g><path style="opacity:1" fill="#24804b" d="M 224.5,128.5 C 197.551,136.605 176.051,152.272 160,175.5C 159.333,174.5 159.333,173.5 160,172.5C 162.333,166.501 165.166,160.835 168.5,155.5C 172.833,151.5 177.167,147.5 181.5,143.5C 181.141,145.371 180.141,146.871 178.5,148C 179.025,148.692 179.692,149.192 180.5,149.5C 187.5,144.333 194.5,139.167 201.5,134C 208.992,131.321 216.659,129.488 224.5,128.5 Z"/></g>
<g><path style="opacity:0.91" fill="#e3f3e3" d="M 338.5,146.5 C 343.021,144.631 345.688,146.298 346.5,151.5C 344.504,154.327 342.004,156.661 339,158.5C 336.994,156.094 335.161,153.594 333.5,151C 334.317,149.51 335.15,148.01 336,146.5C 337.821,147.795 338.655,147.795 338.5,146.5 Z"/></g>
<g><path style="opacity:0.926" fill="#e1f1df" d="M 146.5,151.5 C 151.939,151.818 157.106,153.151 162,155.5C 162.617,156.449 162.451,157.282 161.5,158C 157.513,158.178 156.18,160.011 157.5,163.5C 156.655,165.762 155.322,166.429 153.5,165.5C 150.621,161.576 147.621,157.743 144.5,154C 145.381,153.292 146.047,152.458 146.5,151.5 Z M 151.5,157.5 C 152.386,156.224 153.386,156.224 154.5,157.5C 153.767,158.087 152.767,158.087 151.5,157.5 Z"/></g>
<g><path style="opacity:0.944" fill="#eaf6e9" d="M 349.5,153.5 C 350.963,155.765 352.13,158.098 353,160.5C 351.062,161.86 349.396,161.527 348,159.5C 346.05,161.388 343.883,162.554 341.5,163C 340.483,161.951 340.316,160.784 341,159.5C 343.988,157.601 346.821,155.601 349.5,153.5 Z"/></g>
<g><path style="opacity:1" fill="#f1c415" d="M 249.5,217.5 C 248.167,217.5 246.833,217.5 245.5,217.5C 245.5,214.167 245.5,210.833 245.5,207.5C 245.854,201.231 247.021,195.231 249,189.5C 245.752,195.171 243.419,201.171 242,207.5C 231.951,198.168 230.951,187.835 239,176.5C 244.699,171.135 250.033,165.469 255,159.5C 255.672,155.321 256.172,151.321 256.5,147.5C 269.096,156.531 276.43,168.698 278.5,184C 278.002,192.663 274.335,199.663 267.5,205C 260.873,208.462 254.873,212.629 249.5,217.5 Z"/></g>
<g><path style="opacity:1" fill="#f2f0e5" d="M 184.5,180.5 C 179.403,191.891 175.07,203.558 171.5,215.5C 168.172,231.977 170.839,247.477 179.5,262C 178.115,263.597 177.449,265.43 177.5,267.5C 177.573,269.027 176.906,270.027 175.5,270.5C 175.631,269.761 175.464,269.094 175,268.5C 173.064,271.887 170.564,272.387 167.5,270C 168.451,269.282 168.617,268.449 168,267.5C 167.059,269.061 165.892,270.395 164.5,271.5C 164.835,270.336 164.835,269.003 164.5,267.5C 163.185,269.316 161.685,270.983 160,272.5C 159.601,272.272 159.435,271.938 159.5,271.5C 161.775,266.722 164.275,262.055 167,257.5C 170.226,248.809 170.226,240.143 167,231.5C 164.456,239.422 162.122,247.422 160,255.5C 157.059,260.772 153.726,265.772 150,270.5C 149.517,271.448 149.351,272.448 149.5,273.5C 147.864,272.754 146.197,273.088 144.5,274.5C 143.77,273.066 142.77,271.9 141.5,271C 143.221,270.261 144.887,269.427 146.5,268.5C 146.333,268.167 146.167,267.833 146,267.5C 142.066,268.128 138.566,269.628 135.5,272C 134.43,274.742 132.93,277.242 131,279.5C 131.019,277.893 131.185,276.226 131.5,274.5C 135.831,267.843 139.664,260.843 143,253.5C 145.31,243.954 145.976,234.287 145,224.5C 144.581,223.328 143.915,222.328 143,221.5C 138.038,223.267 133.705,222.267 130,218.5C 127.386,222.301 123.886,224.634 119.5,225.5C 120.396,221.387 120.229,217.387 119,213.5C 116.705,210.203 114.038,207.203 111,204.5C 110.125,203.127 109.625,201.627 109.5,200C 111.857,192.122 116.69,186.289 124,182.5C 127.732,184.133 131.565,185.466 135.5,186.5C 139.54,184.823 143.54,183.157 147.5,181.5C 148.647,181.818 149.481,182.484 150,183.5C 149.934,186.578 150.101,189.578 150.5,192.5C 160.433,186.737 170.933,183.404 182,182.5C 183.011,181.944 183.844,181.278 184.5,180.5 Z"/></g>
<g><path style="opacity:1" fill="#0c9047" d="M 232.5,219.5 C 228.976,219.071 225.976,217.571 223.5,215C 220.394,214.721 217.561,214.888 215,215.5C 210.87,209.915 205.87,205.248 200,201.5C 197.333,198.167 194.667,194.833 192,191.5C 190.806,193.623 190.14,195.957 190,198.5C 189.086,197.346 188.253,197.513 187.5,199C 188.428,199.388 189.095,200.055 189.5,201C 188.678,203.434 188.344,205.934 188.5,208.5C 189.5,208.5 190.5,208.5 191.5,208.5C 191.5,210.167 191.5,211.833 191.5,213.5C 196.423,212.785 199.423,214.785 200.5,219.5C 202.124,219.64 203.29,218.973 204,217.5C 204.18,215.512 204.014,213.512 203.5,211.5C 204.675,211.281 205.675,211.614 206.5,212.5C 207.348,214.409 207.682,216.409 207.5,218.5C 208.5,218.5 209.5,218.5 210.5,218.5C 210.5,219.5 210.5,220.5 210.5,221.5C 209.5,221.5 208.5,221.5 207.5,221.5C 207.137,223.911 208.137,225.411 210.5,226C 208.833,226.333 207.167,226.667 205.5,227C 208.978,229.15 212.145,231.65 215,234.5C 216.989,238.64 219.156,242.64 221.5,246.5C 212.867,237.698 204.367,228.698 196,219.5C 195.833,219.833 195.667,220.167 195.5,220.5C 209.524,238.023 223.357,255.69 237,273.5C 245.047,285.809 249.547,299.142 250.5,313.5C 249.833,313.5 249.167,313.5 248.5,313.5C 245.832,307.328 241.832,302.162 236.5,298C 225.987,291.743 214.987,286.576 203.5,282.5C 198.013,278.798 192.846,274.465 188,269.5C 174.798,254.047 169.298,236.047 171.5,215.5C 175.07,203.558 179.403,191.891 184.5,180.5C 185.433,177.63 187.1,175.296 189.5,173.5C 190.91,185.823 196.576,195.656 206.5,203C 215.4,208.275 224.067,213.775 232.5,219.5 Z"/></g>
<g><path style="opacity:1" fill="#039245" d="M 232.5,219.5 C 233.437,222.269 234.604,224.936 236,227.5C 239.935,228.268 242.435,230.601 243.5,234.5C 242.833,235.5 242.167,236.5 241.5,237.5C 246.532,239.884 249.366,243.884 250,249.5C 250.5,258.827 250.666,268.161 250.5,277.5C 249.178,277.67 248.011,277.337 247,276.5C 246.837,274.324 246.004,272.491 244.5,271C 244.833,270.667 245.167,270.333 245.5,270C 244.341,268.173 243.008,266.507 241.5,265C 243.229,263.211 243.896,261.044 243.5,258.5C 239.839,258.35 238.839,259.85 240.5,263C 240,263.167 239.5,263.333 239,263.5C 235.938,260.269 232.772,257.269 229.5,254.5C 226.5,252.167 223.833,249.5 221.5,246.5C 219.156,242.64 216.989,238.64 215,234.5C 212.145,231.65 208.978,229.15 205.5,227C 207.167,226.667 208.833,226.333 210.5,226C 208.137,225.411 207.137,223.911 207.5,221.5C 208.5,221.5 209.5,221.5 210.5,221.5C 210.5,220.5 210.5,219.5 210.5,218.5C 209.5,218.5 208.5,218.5 207.5,218.5C 207.682,216.409 207.348,214.409 206.5,212.5C 205.675,211.614 204.675,211.281 203.5,211.5C 204.014,213.512 204.18,215.512 204,217.5C 203.29,218.973 202.124,219.64 200.5,219.5C 199.423,214.785 196.423,212.785 191.5,213.5C 191.5,211.833 191.5,210.167 191.5,208.5C 190.5,208.5 189.5,208.5 188.5,208.5C 188.344,205.934 188.678,203.434 189.5,201C 189.095,200.055 188.428,199.388 187.5,199C 188.253,197.513 189.086,197.346 190,198.5C 190.14,195.957 190.806,193.623 192,191.5C 194.667,194.833 197.333,198.167 200,201.5C 205.87,205.248 210.87,209.915 215,215.5C 217.561,214.888 220.394,214.721 223.5,215C 225.976,217.571 228.976,219.071 232.5,219.5 Z"/></g>
<g><path style="opacity:0.875" fill="#9cbf5b" d="M 319.5,172.5 C 324.003,174.188 326.503,177.522 327,182.5C 328.421,185.009 330.088,187.343 332,189.5C 334.014,196.852 336.014,204.185 338,211.5C 340.584,231.549 338.25,250.882 331,269.5C 330.329,270.252 329.496,270.586 328.5,270.5C 342.664,236.149 339.664,203.483 319.5,172.5 Z"/></g>
<g><path style="opacity:0.816" fill="#cdb757" d="M 245.5,207.5 C 245.5,210.833 245.5,214.167 245.5,217.5C 246.833,217.5 248.167,217.5 249.5,217.5C 247.544,219.522 246.044,221.855 245,224.5C 244.182,218.651 244.348,212.985 245.5,207.5 Z"/></g>
<g><path style="opacity:1" fill="#90c543" d="M 265.5,130.5 C 296.766,136.36 320.932,153.694 338,182.5C 343.224,192.274 346.724,202.607 348.5,213.5C 349.041,227.968 348.208,242.301 346,256.5C 344.956,259.565 343.29,262.232 341,264.5C 340.503,266.81 340.337,269.143 340.5,271.5C 336.295,279.697 330.962,287.031 324.5,293.5C 321.281,294.713 318.615,296.713 316.5,299.5C 315.205,298.902 313.872,298.402 312.5,298C 317.757,293.651 321.09,288.151 322.5,281.5C 324.25,277.665 326.25,273.999 328.5,270.5C 329.496,270.586 330.329,270.252 331,269.5C 338.25,250.882 340.584,231.549 338,211.5C 336.014,204.185 334.014,196.852 332,189.5C 330.088,187.343 328.421,185.009 327,182.5C 326.503,177.522 324.003,174.188 319.5,172.5C 304.757,154.135 286.091,141.802 263.5,135.5C 262.602,134.842 261.602,134.176 260.5,133.5C 262.655,132.999 264.322,131.999 265.5,130.5 Z"/></g>
<g><path style="opacity:1" fill="#8abc46" d="M 265.5,279.5 C 263.833,279.5 262.167,279.5 260.5,279.5C 262.63,273.892 264.797,268.225 267,262.5C 269.584,260.424 271.251,257.757 272,254.5C 273.512,253.743 274.846,252.743 276,251.5C 278.733,246.639 281.566,241.972 284.5,237.5C 288.643,232.514 292.643,227.347 296.5,222C 295.833,221.333 295.167,221.333 294.5,222C 290.935,225.396 287.602,228.896 284.5,232.5C 281.99,233.783 279.323,234.783 276.5,235.5C 274.883,238.805 273.217,242.138 271.5,245.5C 269.61,245.703 268.11,245.037 267,243.5C 265.681,247.737 264.681,252.071 264,256.5C 262.882,258.758 261.382,260.758 259.5,262.5C 259.167,258.667 258.833,254.833 258.5,251C 259.082,243.809 259.748,236.642 260.5,229.5C 263.173,224.313 266.84,219.813 271.5,216C 281.12,210.942 289.953,204.775 298,197.5C 301.687,192.504 303.854,187.17 304.5,181.5C 316.23,197.753 320.397,215.753 317,235.5C 312.872,248.293 305.039,258.127 293.5,265C 285.916,268.528 278.249,271.861 270.5,275C 268.937,276.736 267.27,278.236 265.5,279.5 Z"/></g>
<g><path style="opacity:1" fill="#208a4e" d="M 232.5,219.5 C 239.613,223.783 244.779,229.783 248,237.5C 251.881,249.552 253.215,261.885 252,274.5C 251.946,277.861 250.946,280.861 249,283.5C 243.454,273.133 236.954,263.467 229.5,254.5C 232.772,257.269 235.938,260.269 239,263.5C 239.5,263.333 240,263.167 240.5,263C 238.839,259.85 239.839,258.35 243.5,258.5C 243.896,261.044 243.229,263.211 241.5,265C 243.008,266.507 244.341,268.173 245.5,270C 245.167,270.333 244.833,270.667 244.5,271C 246.004,272.491 246.837,274.324 247,276.5C 248.011,277.337 249.178,277.67 250.5,277.5C 250.666,268.161 250.5,258.827 250,249.5C 249.366,243.884 246.532,239.884 241.5,237.5C 242.167,236.5 242.833,235.5 243.5,234.5C 242.435,230.601 239.935,228.268 236,227.5C 234.604,224.936 233.437,222.269 232.5,219.5 Z"/></g>
<g><path style="opacity:1" fill="#98bf5a" d="M 348.5,213.5 C 351.322,228.123 350.822,242.79 347,257.5C 345.058,262.377 342.892,267.044 340.5,271.5C 340.337,269.143 340.503,266.81 341,264.5C 343.29,262.232 344.956,259.565 346,256.5C 348.208,242.301 349.041,227.968 348.5,213.5 Z"/></g>
<g><path style="opacity:0.875" fill="#99bd60" d="M 260.5,229.5 C 259.748,236.642 259.082,243.809 258.5,251C 258.833,254.833 259.167,258.667 259.5,262.5C 261.382,260.758 262.882,258.758 264,256.5C 264.681,252.071 265.681,247.737 267,243.5C 268.11,245.037 269.61,245.703 271.5,245.5C 273.217,242.138 274.883,238.805 276.5,235.5C 279.323,234.783 281.99,233.783 284.5,232.5C 279.837,237.331 275.337,242.331 271,247.5C 267.403,253.706 263.569,259.706 259.5,265.5C 258.029,264.619 257.196,263.286 257,261.5C 256.333,254.5 256.333,247.5 257,240.5C 257.498,236.509 258.665,232.842 260.5,229.5 Z"/></g>
<g><path style="opacity:1" fill="#97b961" d="M 284.5,237.5 C 281.566,241.972 278.733,246.639 276,251.5C 274.846,252.743 273.512,253.743 272,254.5C 271.251,257.757 269.584,260.424 267,262.5C 264.797,268.225 262.63,273.892 260.5,279.5C 262.167,279.5 263.833,279.5 265.5,279.5C 262.324,282.511 260.157,286.178 259,290.5C 257.982,280.236 259.982,270.569 265,261.5C 270.985,253.021 277.485,245.021 284.5,237.5 Z"/></g>
<g><path style="opacity:1" fill="#eef0e3" d="M 171.5,215.5 C 169.298,236.047 174.798,254.047 188,269.5C 192.846,274.465 198.013,278.798 203.5,282.5C 204.43,288.376 205.43,294.209 206.5,300C 206.345,307.674 202.678,310.507 195.5,308.5C 193.435,308.517 191.435,308.85 189.5,309.5C 186.15,309.665 182.817,309.498 179.5,309C 176.057,308.596 174.724,306.929 175.5,304C 178.167,303.667 180.833,303.333 183.5,303C 184.894,302.044 185.561,300.711 185.5,299C 183.385,288.224 180.718,277.724 177.5,267.5C 177.449,265.43 178.115,263.597 179.5,262C 170.839,247.477 168.172,231.977 171.5,215.5 Z"/></g>
<g><path style="opacity:1" fill="#eeece4" d="M 149.5,273.5 C 152.63,271.977 155.963,271.311 159.5,271.5C 159.435,271.938 159.601,272.272 160,272.5C 161.685,270.983 163.185,269.316 164.5,267.5C 164.835,269.003 164.835,270.336 164.5,271.5C 165.892,270.395 167.059,269.061 168,267.5C 168.617,268.449 168.451,269.282 167.5,270C 170.564,272.387 173.064,271.887 175,268.5C 175.464,269.094 175.631,269.761 175.5,270.5C 174.585,272.754 173.252,274.754 171.5,276.5C 175.036,276.979 175.036,278.145 171.5,280C 172.5,280.333 173.5,280.667 174.5,281C 162.5,281.667 162.5,282.333 174.5,283C 171.833,284 169.167,285 166.5,286C 167.833,286.333 169.167,286.667 170.5,287C 166.029,287.733 161.695,287.233 157.5,285.5C 155.042,288.14 152.208,290.14 149,291.5C 147.373,291.375 145.873,290.875 144.5,290C 143.336,287.752 142.003,285.586 140.5,283.5C 138.529,285.808 136.529,288.142 134.5,290.5C 135.833,291.62 136.333,292.953 136,294.5C 133.829,296.953 131.329,297.953 128.5,297.5C 127.682,299.108 127.015,300.775 126.5,302.5C 124.994,303.747 123.494,303.747 122,302.5C 120.436,295.518 121.603,289.184 125.5,283.5C 122.893,282.682 120.226,282.182 117.5,282C 122.113,279.501 126.78,277.001 131.5,274.5C 131.185,276.226 131.019,277.893 131,279.5C 132.93,277.242 134.43,274.742 135.5,272C 138.566,269.628 142.066,268.128 146,267.5C 146.167,267.833 146.333,268.167 146.5,268.5C 144.887,269.427 143.221,270.261 141.5,271C 142.77,271.9 143.77,273.066 144.5,274.5C 146.197,273.088 147.864,272.754 149.5,273.5 Z"/></g>
<g><path style="opacity:1" fill="#96be4f" d="M 322.5,281.5 C 321.09,288.151 317.757,293.651 312.5,298C 313.872,298.402 315.205,298.902 316.5,299.5C 318.615,296.713 321.281,294.713 324.5,293.5C 307.659,312.09 286.992,322.256 262.5,324C 287.656,316.938 307.656,302.772 322.5,281.5 Z"/></g>
<g><path style="opacity:1" fill="#dfc04b" d="M 195.5,308.5 C 195.577,309.75 196.244,310.583 197.5,311C 211.14,315.398 225.14,317.231 239.5,316.5C 230.828,317.674 221.995,317.674 213,316.5C 211.167,316.667 209.333,316.833 207.5,317C 208.056,317.383 208.389,317.883 208.5,318.5C 201.46,316.812 195.127,313.812 189.5,309.5C 191.435,308.85 193.435,308.517 195.5,308.5 Z"/></g>
<g><path style="opacity:1" fill="#ecc320" d="M 208.5,318.5 C 208.389,317.883 208.056,317.383 207.5,317C 209.333,316.833 211.167,316.667 213,316.5C 221.995,317.674 230.828,317.674 239.5,316.5C 242.762,316.025 245.762,315.025 248.5,313.5C 249.167,313.5 249.833,313.5 250.5,313.5C 281.072,308.071 304.572,291.737 321,264.5C 325.928,254.702 330.261,244.702 334,234.5C 334.5,235.5 335,236.5 335.5,237.5C 326.683,285.151 298.516,313.818 251,323.5C 243.112,323.451 235.278,323.451 227.5,323.5C 221.089,322.835 214.755,321.169 208.5,318.5 Z"/></g>
<g><path style="opacity:1" fill="#1a8c4b" d="M 243.5,328.5 C 247.182,328.335 250.848,328.501 254.5,329C 258.457,331.722 258.124,334.222 253.5,336.5C 251.941,335.553 250.274,334.887 248.5,334.5C 246.734,334.434 245.734,335.268 245.5,337C 249.976,338.828 254.143,341.328 258,344.5C 258.884,354.938 254.05,359.104 243.5,357C 240.483,356.495 238.149,354.995 236.5,352.5C 239.546,347.685 243.213,347.352 247.5,351.5C 249.002,350.917 250.335,350.084 251.5,349C 248.938,346.587 245.938,344.92 242.5,344C 238.121,340.588 236.954,336.754 239,332.5C 240.397,330.93 241.897,329.596 243.5,328.5 Z"/></g>
<g><path style="opacity:0.114" fill="#2c7d4f" d="M 295.5,327.5 C 297.5,327.5 299.5,327.5 301.5,327.5C 302.475,337.154 302.308,346.821 301,356.5C 298.919,357.333 296.752,357.333 294.5,356.5C 294.194,346.75 294.527,337.084 295.5,327.5 Z"/></g>
<g><path style="opacity:1" fill="#0c9447" d="M 295.5,329.5 C 297.167,329.5 298.833,329.5 300.5,329.5C 300.5,338.167 300.5,346.833 300.5,355.5C 298.833,355.5 297.167,355.5 295.5,355.5C 295.5,346.833 295.5,338.167 295.5,329.5 Z"/></g>
<g><path style="opacity:1" fill="#1a904d" d="M 191.5,327.5 C 194.044,327.104 196.211,327.771 198,329.5C 198.952,334.061 200.452,338.394 202.5,342.5C 204.458,338.341 205.958,334.008 207,329.5C 208.808,327.604 210.975,327.104 213.5,328C 215.707,333.287 217.54,338.787 219,344.5C 220.819,339.56 222.486,334.56 224,329.5C 226.585,326.872 229.085,326.872 231.5,329.5C 228.773,338.181 225.94,346.848 223,355.5C 220.807,356.773 218.64,357.106 216.5,356.5C 214.21,351.679 212.377,346.679 211,341.5C 209.035,346.009 207.368,350.676 206,355.5C 205.311,356.357 204.478,357.023 203.5,357.5C 202.167,357.167 200.833,356.833 199.5,356.5C 196.45,347.399 193.117,338.399 189.5,329.5C 190.243,328.818 190.909,328.151 191.5,327.5 Z"/></g>
<g><path style="opacity:1" fill="#1c8c4d" d="M 312.5,327.5 C 314.792,327.244 316.959,327.577 319,328.5C 319.333,331.833 319.667,335.167 320,338.5C 322.833,335 325.667,331.5 328.5,328C 330.81,327.503 333.143,327.337 335.5,327.5C 335.579,328.93 335.246,330.264 334.5,331.5C 331.752,334.24 329.418,337.24 327.5,340.5C 330.736,345.296 333.736,350.296 336.5,355.5C 334.659,356.23 332.825,356.897 331,357.5C 327.763,354.025 324.763,350.358 322,346.5C 321.228,346.645 320.561,346.978 320,347.5C 319.911,351.028 319.244,354.362 318,357.5C 316.175,356.897 314.341,356.23 312.5,355.5C 312.239,346.196 312.239,336.863 312.5,327.5 Z"/></g>
<g><path style="opacity:1" fill="#1f8f50" d="M 171.5,327.5 C 174.607,327.351 177.607,327.851 180.5,329C 184.457,331.722 184.124,334.222 179.5,336.5C 177.941,335.553 176.274,334.887 174.5,334.5C 171.14,335.405 170.807,336.905 173.5,339C 181.981,339.799 185.481,344.299 184,352.5C 178.253,358.215 171.753,359.048 164.5,355C 162.084,351.974 162.917,349.807 167,348.5C 169.333,349.5 171.667,350.5 174,351.5C 175.434,351.07 176.601,350.236 177.5,349C 174.952,346.558 171.952,344.892 168.5,344C 161.225,336.879 162.225,331.379 171.5,327.5 Z"/></g>
<g><path style="opacity:1" fill="#1c8f4d" d="M 264.5,327.5 C 271.508,327.334 278.508,327.5 285.5,328C 287.434,329.729 287.434,331.729 285.5,334C 283.236,334.236 281.069,334.736 279,335.5C 279.543,342.114 279.543,348.781 279,355.5C 278.333,356.167 277.667,356.833 277,357.5C 276,356.167 275,356.167 274,357.5C 273.333,356.833 272.667,356.167 272,355.5C 271.505,348.795 271.505,342.128 272,335.5C 269.527,334.88 267.027,334.214 264.5,333.5C 263.181,331.468 263.181,329.468 264.5,327.5 Z"/></g>
</svg>
